<?xml version="1.0" standalone="no"?>
<!DOCTYPE svg PUBLIC "-//W3C//DTD SVG 20010904//EN"
 "http://www.w3.org/TR/2001/REC-SVG-20010904/DTD/svg10.dtd">
<svg version="1.0" xmlns="http://www.w3.org/2000/svg"
 width="1086.000000pt" height="1086.000000pt" viewBox="0 0 1086.000000 1086.000000"
 preserveAspectRatio="xMidYMid meet">
<metadata>
Created by potrace 1.14, written by Peter Selinger 2001-2017
</metadata>
<g transform="translate(0.000000,1086.000000) scale(0.100000,-0.100000)"
fill="#000000" stroke="none">
<path d="M2768 10136 c-77 -18 -118 -66 -228 -271 -18 -33 -36 -64 -40 -70 -4
-5 -25 -41 -46 -80 -20 -38 -46 -83 -56 -100 -10 -16 -24 -42 -30 -57 -7 -16
-16 -28 -20 -28 -4 0 -8 -4 -8 -9 0 -4 -48 -91 -107 -192 -58 -101 -114 -199
-125 -216 -26 -47 -54 -97 -70 -124 -7 -13 -16 -26 -19 -29 -3 -3 -12 -18 -21
-35 -33 -65 -53 -100 -60 -103 -5 -2 -8 -8 -8 -13 0 -5 -11 -26 -23 -47 -13
-20 -35 -57 -49 -82 -52 -92 -68 -120 -92 -159 -15 -22 -26 -43 -26 -47 0 -3
-12 -25 -27 -48 -16 -22 -35 -54 -43 -71 -8 -16 -19 -34 -23 -40 -9 -11 -182
-311 -194 -335 -4 -8 -26 -48 -50 -88 -24 -40 -43 -77 -43 -82 0 -6 -4 -10
-10 -10 -5 0 -10 -5 -10 -10 0 -6 -18 -41 -41 -77 -22 -37 -41 -72 -42 -78 -1
-5 -5 -12 -8 -15 -3 -3 -23 -34 -44 -70 -35 -61 -47 -81 -94 -162 -162 -284
-286 -497 -302 -520 -11 -15 -17 -28 -13 -28 4 0 0 -8 -8 -17 -20 -24 -108
-180 -108 -192 0 -5 -3 -11 -8 -13 -7 -3 -282 -473 -282 -483 0 -3 -7 -13 -15
-22 -8 -10 -16 -22 -16 -28 -1 -5 -10 -21 -20 -34 -11 -13 -19 -30 -19 -37 0
-8 -4 -14 -9 -14 -5 0 -11 -8 -14 -17 -6 -19 -36 -71 -78 -138 -14 -22 -36
-61 -49 -87 -14 -27 -28 -48 -32 -48 -5 0 -8 -4 -8 -9 0 -5 -28 -57 -61 -117
-34 -59 -64 -122 -66 -139 -5 -35 44 -152 77 -185 3 -3 13 -21 23 -40 31 -59
52 -95 57 -100 3 -3 11 -16 18 -29 28 -48 51 -89 135 -234 48 -82 89 -157 92
-168 4 -10 11 -19 16 -19 5 0 9 -4 9 -10 0 -5 36 -70 80 -146 44 -75 80 -138
80 -139 0 -2 27 -49 60 -104 33 -56 60 -106 60 -111 0 -6 3 -10 8 -10 4 0 16
-18 26 -40 11 -22 23 -40 28 -40 5 0 7 -4 4 -8 -3 -5 5 -24 18 -43 22 -32 38
-60 102 -176 15 -27 33 -56 42 -65 8 -10 11 -18 7 -18 -4 0 -1 -8 7 -17 9 -10
24 -34 33 -53 10 -19 21 -37 24 -40 3 -3 14 -21 25 -40 57 -106 80 -145 88
-148 4 -2 8 -8 8 -13 0 -6 29 -60 65 -120 36 -61 65 -113 65 -115 0 -3 15 -28
33 -57 18 -29 39 -65 47 -82 8 -16 21 -36 28 -43 6 -7 12 -20 12 -28 0 -8 5
-14 10 -14 6 0 10 -4 10 -9 0 -5 38 -74 85 -155 47 -80 85 -150 85 -156 0 -5
4 -10 9 -10 5 0 11 -8 14 -17 4 -10 20 -40 37 -68 17 -27 35 -59 40 -70 6 -11
14 -27 20 -35 29 -45 100 -173 100 -181 0 -5 4 -9 10 -9 5 0 12 -11 16 -25 3
-14 9 -25 13 -25 4 0 12 -12 18 -28 7 -15 25 -49 42 -77 17 -27 35 -59 41 -70
5 -11 22 -41 37 -67 46 -76 186 -320 207 -358 10 -19 21 -37 25 -40 3 -3 13
-18 21 -35 8 -16 30 -57 50 -90 19 -33 46 -81 60 -107 14 -27 28 -48 32 -48 5
0 8 -5 8 -10 0 -6 18 -40 40 -76 22 -36 40 -68 40 -71 0 -3 16 -32 36 -64 19
-32 34 -61 34 -65 -1 -4 2 -10 7 -13 5 -3 23 -31 39 -61 16 -30 34 -61 41 -68
6 -6 15 -22 18 -33 7 -20 13 -29 55 -78 8 -10 34 -28 57 -39 l42 -22 2658 0
2659 0 39 21 c21 12 48 33 59 47 18 22 136 220 136 227 0 2 45 80 100 174 55
93 100 175 100 181 0 5 5 10 11 10 5 0 8 4 5 9 -3 5 1 12 10 15 8 3 13 10 10
15 -3 5 1 14 9 21 8 7 15 16 15 21 0 5 18 38 40 74 22 36 40 67 40 69 0 2 25
45 55 95 30 51 55 93 55 96 0 2 27 49 60 105 33 56 60 106 60 111 0 5 5 9 10
9 6 0 10 5 10 11 0 6 22 48 50 95 27 47 50 89 50 94 0 6 5 10 10 10 6 0 10 7
10 15 0 8 5 15 12 15 6 0 8 3 5 6 -4 4 2 19 11 33 10 14 58 96 107 181 48 85
95 163 103 173 8 9 11 17 6 17 -5 0 -4 4 1 8 10 7 26 34 69 117 12 22 23 42
26 45 8 7 80 130 80 136 0 2 12 23 27 47 14 23 40 67 56 97 17 30 33 57 36 60
3 3 19 30 35 60 16 30 36 63 44 73 8 9 11 17 6 17 -5 0 -4 4 2 8 5 4 39 58 75
121 35 63 74 130 86 150 13 20 28 47 35 61 7 14 33 59 58 100 25 41 51 86 58
100 7 14 18 34 25 45 7 11 28 47 47 80 19 33 43 74 52 90 25 42 70 123 87 154
8 14 17 28 20 31 3 3 22 35 41 72 19 37 38 68 43 68 4 0 7 4 7 10 0 5 27 55
60 111 33 55 60 105 60 110 0 5 5 9 11 9 5 0 7 5 4 10 -3 5 -2 10 2 10 5 0 14
12 20 27 7 16 22 45 35 65 13 20 61 103 107 185 47 81 87 150 90 153 6 5 30
47 59 105 9 17 22 36 29 43 7 7 13 18 13 24 0 6 7 19 16 29 8 9 16 24 18 32 1
8 8 23 16 32 9 11 15 39 14 74 0 58 3 51 -105 239 -11 17 -27 47 -38 65 -10
17 -42 73 -71 122 -29 50 -61 106 -72 125 -11 19 -37 64 -58 100 -21 36 -47
81 -58 101 -42 76 -47 84 -53 89 -3 3 -8 12 -12 20 -3 8 -20 38 -37 65 -16 28
-38 66 -47 85 -10 19 -22 40 -26 45 -17 22 -77 128 -77 136 0 5 -5 9 -10 9 -6
0 -9 3 -8 8 1 4 -14 35 -35 70 -20 35 -37 67 -37 73 0 5 -4 9 -10 9 -5 0 -10
4 -10 9 0 5 -27 55 -60 110 -33 56 -60 103 -60 106 0 4 -40 71 -78 130 -6 11
-15 27 -19 35 -4 8 -35 63 -70 122 -35 59 -63 110 -63 114 0 4 -6 15 -14 23
-7 9 -27 41 -43 71 -17 30 -62 110 -102 177 -39 68 -71 127 -71 133 0 5 -4 10
-9 10 -5 0 -11 8 -14 18 -3 9 -19 40 -36 67 -16 28 -45 77 -64 110 -39 70
-168 292 -204 350 -13 22 -26 48 -30 58 -3 9 -10 17 -15 17 -5 0 -7 4 -4 9 3
5 -1 14 -9 21 -8 7 -15 19 -15 26 0 8 -3 14 -8 14 -4 0 -14 15 -21 32 -8 18
-24 47 -35 64 -21 32 -51 85 -54 94 -2 10 -101 175 -111 187 -6 7 -11 16 -11
20 0 5 -11 25 -25 44 -13 20 -21 39 -18 43 4 3 1 6 -5 6 -7 0 -12 4 -12 9 0 5
-18 39 -40 75 -22 36 -40 70 -40 76 0 5 -3 10 -7 10 -5 0 -13 10 -19 23 -18
38 -66 121 -85 149 -11 14 -19 29 -19 31 0 3 -29 56 -65 117 -36 61 -76 130
-89 153 -13 23 -40 71 -61 107 -21 36 -44 77 -52 92 -8 15 -19 30 -24 33 -5 4
-7 11 -4 16 4 5 1 9 -4 9 -6 0 -11 5 -11 10 0 6 -16 36 -35 66 -19 30 -35 56
-35 59 0 11 -53 81 -68 90 -25 14 -5322 15 -5384 1z m-968 -2548 c-13 -13 -19
-16 -15 -8 14 25 28 41 32 36 3 -3 -5 -15 -17 -28z m3905 -4588 c-3 -5 -14
-10 -23 -9 -14 0 -13 2 3 9 27 11 27 11 20 0z m-45 -6 c0 -8 -19 -13 -24 -6
-3 5 1 9 9 9 8 0 15 -2 15 -3z m-237 -1791 c-7 -2 -19 -2 -25 0 -7 3 -2 5 12
5 14 0 19 -2 13 -5z m2397 3 c0 -7 -40 -14 -44 -7 -3 4 6 8 20 9 13 1 24 0 24
-2z"/>
</g>
</svg>
