<svg width="440px" height="415.687px" viewBox="0 0 440 415.687" version="1.1" xmlns="http://www.w3.org/2000/svg" xmlns:xlink="http://www.w3.org/1999/xlink">
    <style>
        #green-geometry {
            fill: #54ab9b;
        }

        #black-geometry {
            fill: black;
        }
    </style>
    
    <g id="green-geometry" transform="translate(0, 34.64)">
        <polyline id="Path" points="180 242.481 160 207.841 180 173.2 220 173.2 200 138.559 160 138.559 140 173.199 120 138.559 160 69.278 140 34.638 80 138.559 0 138.559 100 311.769 120 277.129 60 173.199 100 173.199 140 242.481"></polyline>
        <polyline id="Path" points="160 277.129 140 311.769 260 311.769 280 346.411 300 381.047 400 207.84 360 207.84 300 311.77 280 277.13 320 207.84 300 173.2 280 207.84 240 207.84 220 173.2 200 207.84 220 242.48 260 242.48 240 277.13"></polyline>
        <polyline id="Path" points="220 173.199 260 173.199 280 138.559 260 103.919 300 103.919 340 173.199 380 173.199 320 69.278 340 34.638 360 -2.84217094e-14 160 -2.84217094e-14 180 34.637 300 34.637 280 69.277 200 69.277 180 103.918 220 103.918 240 138.559"></polyline>
    </g>
    <g id="black-geometry" transform="translate(40, 0)">
        <polyline id="Path" points="40 381.051 240 381.051 220 346.41 100 346.41 120 311.77 200 311.77 220 277.12 180 277.12 160 242.48 180 207.84 140 207.84 120 242.48 140 277.12 100 277.12 60 207.84 20 207.84 80 311.77 60 346.41"></polyline>
        <polyline id="Path" points="180 207.839 200 173.199 180 138.559 140 138.559 160 103.918 240 103.918 260 69.278 140 69.278 120 34.64 100 -4.26325641e-14 0 173.199 40 173.199 100 69.277 120 103.917 80 173.199 100 207.839 120 173.199 160 173.199"></polyline>
        <polyline id="Path" points="180 207.839 200 242.48 240 242.48 260 207.84 280 242.48 240 311.77 260 346.41 320 242.48 400 242.48 300 69.277 280 103.917 340 207.84 300 207.84 260 138.558 220 138.558 240 173.199 220 207.839"></polyline>
    </g>
</svg>