<svg width="674" height="595" viewBox="0 0 674 595" fill="none" xmlns="http://www.w3.org/2000/svg">
<g clip-path="url(#clip0_3_30)">
<path d="M24.17 568.15L130.29 390.21L233.01 568.15H24.17ZM234.97 568.15L337.67 390.21L440.39 568.15H234.97ZM441.4 568.15L544.12 390.21L646.84 568.15H441.4ZM131.35 388.41L234.07 210.5L336.79 388.41H131.35ZM338.08 388.41L440.8 210.5L543.52 388.41H338.08ZM235.04 209.17L337.76 31.26L440.48 209.17H235.04Z" stroke="white" stroke-width="15"/>
<path d="M337.3 54.35C352.228 54.35 364.33 42.2483 364.33 27.32C364.33 12.3918 352.228 0.290009 337.3 0.290009C322.372 0.290009 310.27 12.3918 310.27 27.32C310.27 42.2483 322.372 54.35 337.3 54.35Z" fill="white"/>
<path d="M235.76 235.35C250.688 235.35 262.79 223.248 262.79 208.32C262.79 193.392 250.688 181.29 235.76 181.29C220.832 181.29 208.73 193.392 208.73 208.32C208.73 223.248 220.832 235.35 235.76 235.35Z" fill="white"/>
<path d="M440.43 235.35C455.358 235.35 467.46 223.248 467.46 208.32C467.46 193.392 455.358 181.29 440.43 181.29C425.502 181.29 413.4 193.392 413.4 208.32C413.4 223.248 425.502 235.35 440.43 235.35Z" fill="white"/>
<path d="M131.35 414.98C146.278 414.98 158.38 402.878 158.38 387.95C158.38 373.022 146.278 360.92 131.35 360.92C116.422 360.92 104.32 373.022 104.32 387.95C104.32 402.878 116.422 414.98 131.35 414.98Z" fill="white"/>
<path d="M337.3 414.98C352.228 414.98 364.33 402.878 364.33 387.95C364.33 373.022 352.228 360.92 337.3 360.92C322.372 360.92 310.27 373.022 310.27 387.95C310.27 402.878 322.372 414.98 337.3 414.98Z" fill="white"/>
<path d="M543.51 414.98C558.438 414.98 570.54 402.878 570.54 387.95C570.54 373.022 558.438 360.92 543.51 360.92C528.582 360.92 516.48 373.022 516.48 387.95C516.48 402.878 528.582 414.98 543.51 414.98Z" fill="white"/>
<path d="M646.84 594.11C661.768 594.11 673.87 582.008 673.87 567.08C673.87 552.152 661.768 540.05 646.84 540.05C631.912 540.05 619.81 552.152 619.81 567.08C619.81 582.008 631.912 594.11 646.84 594.11Z" fill="white"/>
<path d="M440.43 594.11C455.358 594.11 467.46 582.008 467.46 567.08C467.46 552.152 455.358 540.05 440.43 540.05C425.502 540.05 413.4 552.152 413.4 567.08C413.4 582.008 425.502 594.11 440.43 594.11Z" fill="white"/>
<path d="M235.76 594.11C250.688 594.11 262.79 582.008 262.79 567.08C262.79 552.152 250.688 540.05 235.76 540.05C220.832 540.05 208.73 552.152 208.73 567.08C208.73 582.008 220.832 594.11 235.76 594.11Z" fill="white"/>
<path d="M27.57 594.11C42.4983 594.11 54.6 582.008 54.6 567.08C54.6 552.152 42.4983 540.05 27.57 540.05C12.6418 540.05 0.540009 552.152 0.540009 567.08C0.540009 582.008 12.6418 594.11 27.57 594.11Z" fill="white"/>
</g>
<defs>
<clipPath id="clip0_3_30">
<rect width="674" height="595" fill="white"/>
</clipPath>
</defs>
</svg>
