<?xml version="1.0" encoding="UTF-8" standalone="no"?>
<svg
   version="1.1"
   width="542.97168"
   height="472.17206"
   viewBox="0 0 542.97168 472.17206"
   xml:space="preserve"
   id="svg2"
   xmlns="http://www.w3.org/2000/svg"
   xmlns:svg="http://www.w3.org/2000/svg">
<desc
   id="desc1">Created with Fabric.js 5.2.4</desc>
<defs
   id="defs1" />




<path
   style="fill:#b22b3d;fill-rule:nonzero;stroke:#000000;stroke-width:0;stroke-linecap:butt;stroke-linejoin:miter;stroke-miterlimit:4;stroke-dasharray:none;stroke-dashoffset:0"
   vector-effect="non-scaling-stroke"
   d="m 14.55085,262.85716 c -4.51893,-7.81415 -8.79629,-15.34772 -13.23193,-22.7869 -1.59378,-2.67297 -1.85707,-4.86187 -0.15845,-7.79174 30.3306,-52.3154 60.54006,-104.70105 90.76895,-157.0754 13.15616,-22.79425 26.50049,-45.48416 39.2909,-68.48198 2.89804,-5.21083 6.26126,-6.63093 11.80868,-6.61766 74.65131,0.17877 149.3031,0.18431 223.95475,0.19974 12.49478,0.003 24.99145,-0.0541 37.48297,-0.30151 3.09332,-0.0613 4.37945,1.52696 5.71173,3.8408 17.70532,30.7506 35.48474,61.45847 53.21643,92.19385 25.97345,45.02127 51.87829,90.08227 77.96783,135.0361 2.11347,3.64169 2.16358,6.27194 0.0392,9.94022 -43.57367,75.24072 -87.03766,150.54507 -130.38806,225.9147 -2.21137,3.84473 -4.66523,5.22302 -9.0752,5.21661 -86.64941,-0.12433 -173.29919,-0.13726 -259.94849,0.028 -5.04638,0.01 -7.72802,-1.67578 -10.18397,-5.9513 C 100.11037,411.04131 68.23519,355.96508 36.41479,300.85723 29.16808,288.30712 21.95724,275.73635 14.55086,262.8572 M 413.58213,58.32794 c -5.83758,-10.09616 -11.7113,-20.17172 -17.48706,-30.30313 -1.42511,-2.49984 -3.03448,-4.00054 -6.23169,-3.98758 -26.99819,0.10925 -53.99704,0.0635 -80.99566,0.0753 -1.65805,7.3e-4 -3.59503,-0.25851 -4.63031,1.29012 -3.8382,5.74136 -7.38385,11.65771 -10.13638,17.92074 2.4656,1.709 4.52105,1.17435 6.45709,1.17737 25.33197,0.0395 50.6643,0.0893 75.99582,-0.0252 3.73928,-0.0169 6.13787,1.07062 8.05722,4.44877 11.35745,19.98986 22.91952,39.86345 34.37185,59.79961 0.78601,1.36838 2.13391,2.68207 1.28608,4.59683 -2.02485,1.08207 -4.23066,0.6449 -6.35492,0.646 -51.6641,0.0266 -103.32816,0.0133 -154.99222,0.0512 -2.25525,0.002 -5.13089,-0.93033 -6.5622,1.32574 -3.68689,5.81162 -6.97922,11.87357 -10.38376,17.75699 2.43149,1.80032 4.32746,1.26392 6.09348,1.27713 8.83243,0.0662 17.66641,0.10651 26.49799,8.6e-4 2.76431,-0.0331 4.7474,0.72201 6.17871,3.23114 9.57623,16.78741 19.18209,33.55844 28.89749,50.26547 1.57123,2.70199 1.24869,4.86377 -0.2706,7.38501 -3.69605,6.1337 -7.31375,12.3212 -10.73383,18.61163 -1.61392,2.96836 -4.03497,5.61878 -4.55542,9.41193 5.90497,0.90201 11.57425,0.17718 17.1987,0.50549 3.58753,0.20944 5.81632,-1.07504 7.5719,-4.32544 4.19446,-7.76605 8.58466,-15.44171 13.26071,-22.9259 2.32914,-3.72782 2.34238,-6.67944 0.0684,-10.50553 -8.93707,-15.03698 -17.56277,-30.25958 -26.234,-45.4533 -0.93458,-1.63752 -2.62012,-3.1467 -1.82923,-5.44364 2.0452,-1.14963 4.25226,-0.69977 6.37207,-0.70297 21.16553,-0.0321 42.33783,0.27862 63.49271,-0.19684 6.31106,-0.14178 9.45065,2.13352 12.4205,7.33804 20.80847,36.4665 41.90277,72.7699 62.94183,109.10453 0.87476,1.51071 1.39063,3.42816 3.68225,4.18481 3.55671,-4.7763 6.15528,-10.15808 9.24884,-15.23572 1.59644,-2.62024 1.49549,-4.60791 -0.0462,-7.26809 -17.71014,-30.55911 -35.29004,-61.19373 -52.88421,-91.81995 -0.95942,-1.67007 -2.56946,-3.15594 -1.72199,-6.19842 h 49.75958 C 442.52861,108.55037 428.24363,83.75277 413.58213,58.32794 M 157.84159,332.09263 C 135.67213,293.71562 113.50268,255.33857 90.71041,215.8834 c -3.63725,6.30106 -6.32177,11.25876 -9.31506,16.02243 -1.81007,2.88071 -1.78456,5.19431 -0.0276,8.22059 17.64763,30.39675 35.14258,60.88217 52.63707,91.36758 1.02231,1.78146 2.77103,3.42053 1.73401,6.74408 H 86.30829 c 5.3084,9.24164 9.92834,17.30368 14.56615,25.3555 15.21592,26.41687 30.43571,52.83148 45.66258,79.242 1.40411,2.43537 2.5455,4.9505 6.17389,4.93848 27.66034,-0.0916 55.3211,-0.0563 82.98172,-0.0763 1.51929,-0.001 3.08673,-0.14692 3.95697,-1.6446 3.39523,-5.84332 6.74502,-11.71307 10.2207,-17.76269 -3.07348,-1.35944 -5.58676,-1.14331 -8.05719,-1.14514 -25.328,-0.0187 -50.65622,-0.0767 -75.9837,0.0359 -3.40796,0.0151 -5.4455,-1.04705 -7.16712,-4.05712 -11.57852,-20.2436 -23.33798,-40.38361 -35.01007,-60.57386 -0.62668,-1.08404 -1.66134,-2.20379 -0.60359,-3.70446 1.86105,-0.81275 3.88515,-0.43226 5.85031,-0.43323 48.32317,-0.0239 96.64638,-0.0192 144.96956,-0.0183 16.88852,3e-4 16.88852,0.002 24.91415,-14.8367 2.46946,-4.56583 1.99167,-5.49491 -3.18368,-5.54373 -8.83078,-0.0833 -17.6637,-0.11329 -26.49371,-0.004 -2.95368,0.0365 -5.00177,-0.80548 -6.53934,-3.49927 -9.66144,-16.92654 -19.40372,-33.80731 -29.21344,-50.64838 -1.38351,-2.37518 -1.05814,-4.26657 0.26312,-6.47543 3.76215,-6.28976 7.43698,-12.63437 11.01123,-19.03278 1.5918,-2.84954 3.68692,-5.5202 4.21765,-9.44845 -7.10043,-1.28681 -13.99237,-1.16086 -20.88433,-0.12503 -1.84864,0.27786 -2.45133,2.11178 -3.27442,3.53937 -4.57605,7.93673 -8.97513,15.98214 -13.78244,23.77594 -2.14822,3.48281 -1.90802,6.25955 0.0882,9.6513 8.36465,14.21167 16.56552,28.52057 24.72204,42.85321 1.51471,2.66159 3.60602,5.13892 4.01639,8.26077 -1.85162,1.58246 -3.75723,1.09089 -5.51376,1.09336 -22.32859,0.0313 -44.65842,-0.10715 -66.98493,0.10995 -4.45587,0.0433 -7.36349,-1.24206 -9.38968,-5.97171 M 208.80777,141.328 c 8.98474,-15.58801 18.08542,-31.11114 26.8721,-46.80999 2.17618,-3.88807 4.79422,-5.16213 9.16544,-5.14624 42.49319,0.15448 84.98712,0.10673 127.48086,0.0818 2.07221,-0.001 4.25437,0.4559 6.49057,-0.70606 -1.88391,-5.27893 -5.37738,-9.429 -7.55804,-14.21919 -2.04685,-4.49634 -5.11652,-5.61723 -9.84931,-5.59024 -34.16058,0.19481 -68.32275,0.12691 -102.48434,0.087 -2.24307,-0.003 -4.64099,0.61395 -7.40518,-1.31498 7.94317,-14.00076 15.88794,-28.00439 23.85272,-42.04324 -3.09295,-1.87062 -5.47012,-1.54323 -7.76526,-1.54483 -24.4964,-0.0172 -48.99279,-0.006 -73.48919,-2e-4 -12.83143,0.003 -25.66306,-0.0282 -38.49405,0.0469 -3.14023,0.0184 -6.21317,0.0668 -8.18152,3.50612 -13.48593,23.56389 -27.10439,47.05192 -40.65238,70.58038 -0.80381,1.39594 -2.12481,2.84857 -1.14471,4.60416 3.37448,6.04434 6.85002,12.03228 10.23176,17.94503 2.30178,-0.80673 2.732,-2.36645 3.45305,-3.61453 12.83411,-22.21463 25.73004,-44.39467 38.36463,-66.7225 2.4049,-4.24993 5.06326,-6.12355 10.17135,-6.05119 21.9925,0.31146 43.99173,0.13623 65.98838,0.19071 1.90677,0.005 4.02902,-0.58229 5.84265,1.40653 -0.58405,2.69669 -2.30493,4.97606 -3.68543,7.37416 -25.67947,44.60826 -51.39404,89.19634 -77.08487,133.79805 -0.89212,1.54883 -2.49884,3.15668 -1.52884,5.02811 3.17759,6.13055 6.38028,12.26956 10.41822,17.84537 2.35504,-1.06662 2.96298,-2.89521 3.86117,-4.4405 4.3537,-7.48999 8.74823,-14.95916 12.92456,-22.54785 1.63913,-2.97845 3.78116,-4.29577 7.17701,-4.28168 18.83013,0.0782 37.66091,0.065 56.49124,0.0117 3.16214,-0.009 5.25845,1.1644 6.83224,3.99561 4.45093,8.00708 9.10053,15.90423 13.72189,23.81552 0.77985,1.33493 1.1121,3.24847 3.65986,3.25034 2.8826,-4.88053 5.72616,-9.95484 8.83828,-14.85871 1.65241,-2.60379 1.46494,-4.72238 -0.077,-7.31735 -4.76462,-8.01849 -9.40698,-16.11517 -13.86444,-24.30792 -1.81644,-3.3386 -4.13254,-4.62653 -7.9715,-4.58789 -17.82892,0.17944 -35.66067,0.10547 -53.49124,0.0609 -1.90231,-0.005 -4.01898,0.63687 -6.17755,-1.62637 2.84387,-4.98471 5.77487,-10.12213 9.06686,-15.89704 m 163.32205,24.45087 c -1.66543,-2.2291 -2.25546,-6.19351 -5.09301,-6.43289 -6.97925,-0.58884 -14.04163,-0.19272 -21.21399,-0.19272 0.46661,3.02097 1.76791,4.78397 2.83639,6.64243 4.15213,7.22219 8.23343,14.48803 12.5481,21.61227 1.67856,2.77154 1.58386,4.94742 -0.0757,7.76743 -9.46304,16.07992 -18.81024,32.23046 -27.9624,48.48895 -1.90668,3.38721 -4.14047,4.6401 -7.95068,4.51703 -7.65811,-0.24741 -15.33063,-0.0927 -22.99655,-0.0263 -2.60898,0.0226 -5.30677,-0.14425 -8.25028,1.9205 2.88513,5.04291 5.86463,9.98609 8.56308,15.07819 1.36466,2.57523 3.19351,3.42499 6.01599,3.38425 8.99781,-0.12992 18.00843,-0.29676 26.99442,0.0546 4.77899,0.18689 7.62018,-1.41504 9.95105,-5.60888 7.76953,-13.97919 15.84201,-27.79126 23.90783,-41.60346 1.63151,-2.79379 2.73231,-6.04751 5.4195,-7.95819 1.61865,0.36054 2.0574,1.50211 2.62945,2.49301 11.74543,20.34628 23.44111,40.72153 35.27173,61.01813 1.75415,3.00946 1.43702,5.3479 -0.26239,8.27869 -21.39319,36.89419 -42.68066,73.84976 -63.92324,110.83096 -1.07664,1.87433 -3.11292,3.56958 -2.13593,6.80292 5.40271,0 10.89615,-0.32496 16.3291,0.10839 3.95752,0.31574 6.05789,-1.15673 7.93698,-4.44165 15.4711,-27.04492 31.07013,-54.01669 46.65149,-80.99838 2.87232,-4.97394 5.84021,-9.89264 9.43811,-15.97665 8.90772,15.28528 17.17121,29.46502 25.64429,44.00457 0.92999,-1.0769 1.19373,-1.30065 1.35657,-1.58267 20.15814,-34.918 40.28759,-69.85263 60.50348,-104.73721 1.50708,-2.60065 0.93884,-4.63998 -0.39484,-6.94986 -13.41187,-23.23019 -26.77924,-46.48602 -40.17468,-69.72574 -0.82325,-1.42813 -1.55713,-3.35721 -3.38782,-3.40076 -6.88507,-0.16381 -13.77631,-0.0657 -20.78833,-0.0657 0.23383,3.63477 1.99151,5.73282 3.2901,7.99585 12.43823,21.67682 24.85956,43.36386 37.45172,64.95114 1.76379,3.02368 1.62341,5.31635 -0.0817,8.24231 -11.74249,20.15006 -23.33593,40.38696 -34.99145,60.5878 -0.64337,1.11514 -1.0752,2.50073 -3.53455,2.77649 C 425.3704,258.085 398.92668,212.25482 372.1298,165.77875 m -5.15255,108.5947 c -2.91553,5.04696 -5.9397,10.03549 -8.70014,15.16589 -1.35159,2.51205 -3.08917,3.54385 -5.94885,3.53122 -19.3306,-0.0853 -38.66193,-0.0883 -57.99252,-0.004 -2.85886,0.0124 -4.57782,-1.03162 -5.96979,-3.50961 -4.40537,-7.8425 -8.97186,-15.59558 -13.5661,-23.32978 -0.86774,-1.46081 -1.30884,-3.53256 -4.22025,-3.7074 -2.81494,4.80485 -5.60498,9.89026 -8.72513,14.76438 -1.70608,2.66522 -1.35348,4.77438 0.17029,7.33182 4.77497,8.01406 9.4961,16.06851 13.9274,24.27505 1.81531,3.36179 3.99027,4.68454 7.86832,4.64191 17.82904,-0.19608 35.66144,-0.11228 53.49243,-0.0566 1.88135,0.006 3.99481,-0.68811 5.52649,0.89139 0.54297,1.69039 -0.51346,2.72339 -1.15137,3.83096 -11.38986,19.77631 -22.91235,39.47735 -34.13614,59.34717 -2.2893,4.05279 -5.05447,5.38513 -9.57684,5.37005 -42.32773,-0.14117 -84.6561,-0.0936 -126.98425,-0.0555 -2.04194,0.002 -4.26981,-0.61694 -6.58374,1.13996 2.71383,4.75592 5.63623,9.21789 7.87668,13.99945 2.01785,4.30639 4.98007,5.41388 9.51248,5.37109 33.48935,-0.3161 66.98086,-0.40588 100.47183,-0.53766 3.08063,-0.0121 6.22793,-0.21356 9.71133,1.4054 -8.26608,14.39715 -16.3294,28.44128 -24.65524,42.94256 1.85642,0.27137 2.81659,0.53394 3.77685,0.53443 39.66178,0.0194 79.32355,-0.002 118.98523,0.0504 2.8711,0.004 4.53772,-1.18182 5.93409,-3.617 13.50903,-23.55841 27.1101,-47.06397 40.67151,-70.59235 0.64825,-1.12463 1.95227,-2.31762 1.24407,-3.61786 -3.43292,-6.30328 -6.53131,-12.83917 -11.33508,-18.97696 -1.45642,2.24021 -2.51825,3.72116 -3.42511,5.29148 -12.66156,21.92462 -25.39172,43.81073 -37.86291,65.84326 -2.19025,3.86944 -4.73548,5.16748 -9.11377,5.14642 -19.13742,-0.0922 -38.27649,0.24848 -57.41535,0.30597 -5.06729,0.0153 -10.13589,-0.41846 -14.98361,-0.63611 -0.5502,-1.90356 0.30911,-2.81646 0.87485,-3.80078 7.9693,-13.86578 15.94617,-27.72723 23.931,-41.58404 18.6319,-32.3338 37.27292,-64.66236 55.89132,-97.00391 0.8075,-1.40268 2.38407,-2.87109 1.50266,-4.5376 -3.29919,-6.23782 -6.52838,-12.54239 -11.07986,-18.93057 -2.82401,4.74414 -5.19193,8.72205 -7.94278,13.31763 M 28.22128,234.6952 c -0.72191,2.58768 0.88667,4.50882 2.01419,6.47626 13.08726,22.83655 26.22479,45.64432 39.37758,68.44324 0.81338,1.40988 1.44897,3.48068 3.26286,3.52865 7.04468,0.18631 14.09718,0.0758 21.10079,0.0758 0.19552,-2.81192 -1.13099,-4.22083 -2.01735,-5.7605 -12.79941,-22.23318 -25.58384,-44.4754 -38.52207,-66.62774 -1.88582,-3.22883 -2.22554,-5.86588 -0.2655,-9.21564 11.61009,-19.84201 23.03717,-39.79108 34.58343,-59.67063 0.76914,-1.32422 1.15039,-3.24032 3.34082,-3.36315 1.48011,0.92892 2.09697,2.53408 2.91732,3.9501 9.26964,16.00046 18.52708,32.00796 27.76069,48.0292 16.80349,29.15586 33.57299,58.33139 50.41664,87.46402 1.1254,1.94651 1.76005,5.0055 4.32752,5.13294 6.85925,0.34045 13.74658,0.11593 20.64395,0.11593 0.0302,-3.54168 -1.56967,-5.37277 -2.68787,-7.35278 -4.01361,-7.10702 -8.06112,-14.19736 -12.25118,-21.20105 -1.51462,-2.53162 -1.80213,-4.63278 -0.21079,-7.35715 9.57822,-16.39807 19.03973,-32.86535 28.39865,-49.38968 1.81043,-3.19653 4.23178,-4.29513 7.73401,-4.2467 8.49674,0.11749 16.9967,0.0705 25.49441,-0.0108 1.73554,-0.0166 3.68366,0.53219 5.45048,-1.3093 -1.57727,-4.64999 -4.98585,-8.4722 -6.90873,-12.99957 -2.01632,-4.74744 -5.32473,-6.01026 -10.24344,-5.79682 -8.31585,0.36084 -16.66534,0.27607 -24.98837,0.003 -4.17273,-0.13705 -6.6951,1.24542 -8.77844,4.94772 -8.73969,15.53104 -17.74643,30.91211 -26.70892,46.31696 -0.86847,1.4927 -1.17563,3.55908 -3.33063,4.04523 -1.79709,-0.6973 -2.2002,-2.45063 -3.0101,-3.85007 -10.34644,-17.87833 -20.45615,-35.89859 -31.10666,-53.59351 -4.27655,-7.1051 -4.30762,-13.18542 -0.10489,-20.3605 20.37549,-34.78607 40.4151,-69.76889 60.54883,-104.69634 1.05346,-1.82759 2.58813,-3.51027 2.35272,-6.14529 -4.36301,-2.18439 -9.12616,-0.61154 -13.63348,-1.25551 -5.80646,-0.8296 -8.97541,1.70291 -11.80484,6.69324 -16.92371,29.84866 -34.16098,59.51971 -51.34444,89.22061 -0.94682,1.6366 -1.3638,3.86224 -4.27495,4.53079 -8.13971,-13.96695 -16.35219,-28.05874 -25.18458,-43.21426 -10.19712,17.70887 -20.22011,35.11532 -30.18563,52.44064 -10.73875,18.66961 -21.41077,37.24499 -32.16203,56.00302 z"
   stroke-linecap="round"
   id="path1" /></svg>
